<?xml version="1.0" encoding="utf-8"?>
<!-- Generator: Adobe Illustrator 25.2.3, SVG Export Plug-In . SVG Version: 6.00 Build 0)  -->
<svg version="1.1" id="Layer_1" xmlns="http://www.w3.org/2000/svg" xmlns:xlink="http://www.w3.org/1999/xlink" x="0px" y="0px"
	 viewBox="0 0 417 81" style="enable-background:new 0 0 417 81;" xml:space="preserve">
<style type="text/css">
	.st0{enable-background:new    ;}
	.st1{fill:#FFFFFF;}
</style>
<g id="Group_110" transform="translate(-630 -339)">
	<g class="st0">
		<path class="st1" d="M632.1,405v-1.2c1.3-0.1,2.3-0.2,2.9-0.5c0.6-0.2,1.1-0.7,1.3-1.5c0.2-0.7,0.3-1.8,0.3-3.3v-30.3
			c0-1.5-0.1-2.6-0.3-3.3c-0.2-0.7-0.7-1.2-1.3-1.5c-0.7-0.3-1.6-0.4-2.9-0.5v-1.2c1.1,0,2.4,0.1,4.1,0.1c1.7,0,3.5,0.1,5.5,0.1
			c1.7,0,3.4,0,5.1-0.1c1.7,0,3.1-0.1,4.1-0.1v1.2c-1.3,0-2.3,0.2-3,0.5c-0.7,0.3-1.1,0.8-1.3,1.5c-0.2,0.7-0.3,1.8-0.3,3.3v30.3
			c0,1.5,0.1,2.6,0.3,3.3c0.2,0.7,0.7,1.2,1.3,1.5c0.6,0.2,1.6,0.4,2.9,0.5v1.2c-1.1-0.1-2.5-0.1-4.1-0.2c-1.7,0-3.4,0-5.1,0
			c-2,0-3.8,0-5.5,0C634.5,404.9,633.1,404.9,632.1,405z M642.4,383.9v-1.2h24.1v1.2H642.4z M657.9,405v-1.2
			c1.3-0.1,2.3-0.2,2.9-0.5c0.6-0.2,1.1-0.7,1.3-1.5c0.2-0.7,0.3-1.8,0.3-3.3v-30.3c0-1.5-0.1-2.6-0.3-3.3c-0.2-0.7-0.7-1.2-1.3-1.5
			c-0.7-0.3-1.6-0.4-2.9-0.5v-1.2c1.1,0,2.5,0.1,4.3,0.1c1.8,0,3.5,0.1,5.3,0.1c1.9,0,3.6,0,5.3-0.1c1.6,0,3-0.1,4-0.1v1.2
			c-1.3,0-2.3,0.2-3,0.5c-0.7,0.3-1.1,0.8-1.3,1.5c-0.2,0.7-0.3,1.8-0.3,3.3v30.3c0,1.5,0.1,2.6,0.3,3.3c0.2,0.7,0.7,1.2,1.3,1.5
			c0.6,0.2,1.6,0.4,2.9,0.5v1.2c-1-0.1-2.3-0.1-4-0.2s-3.4,0-5.3,0c-1.7,0-3.5,0-5.3,0C660.5,404.9,659,404.9,657.9,405z"/>
		<path class="st1" d="M702.5,361c4.3,0,8.1,0.9,11.3,2.6c3.2,1.7,5.7,4.3,7.5,7.5c1.8,3.3,2.7,7.2,2.7,11.9c0,4.6-0.9,8.5-2.7,12
			s-4.4,6.1-7.7,8c-3.3,1.9-7,2.9-11.2,2.9c-4.3,0-8.1-0.9-11.3-2.6c-3.2-1.7-5.7-4.3-7.5-7.6c-1.8-3.3-2.7-7.3-2.7-11.9
			c0-4.6,0.9-8.5,2.8-12c1.9-3.4,4.4-6.1,7.6-8C694.6,361.9,698.3,361,702.5,361z M702.3,362.1c-2.3,0-4.3,0.9-5.9,2.7
			c-1.7,1.8-3,4.4-3.9,7.6c-0.9,3.2-1.4,6.9-1.4,11.2c0,4.3,0.5,8.1,1.6,11.3c1,3.2,2.4,5.7,4.2,7.4c1.8,1.7,3.7,2.6,5.9,2.6
			c2.3,0,4.3-0.9,5.9-2.7c1.7-1.8,3-4.4,3.9-7.6c0.9-3.2,1.4-6.9,1.4-11.1c0-4.4-0.5-8.1-1.6-11.3c-1-3.2-2.4-5.6-4.2-7.4
			C706.4,362.9,704.4,362.1,702.3,362.1z"/>
		<path class="st1" d="M765.8,361.8c-0.2,2.1-0.3,4.1-0.3,6c-0.1,1.9-0.1,3.4-0.1,4.4c0,0.9,0,1.7,0.1,2.6c0,0.8,0.1,1.5,0.1,2.1
			h-1.4c-0.7-3.4-1.5-6.1-2.5-8.1c-1-2-2.2-3.4-3.6-4.2c-1.4-0.8-3-1.3-4.9-1.3h-1.4V398c0,1.6,0.2,2.8,0.5,3.7
			c0.3,0.8,1,1.4,1.9,1.6c0.9,0.3,2.3,0.4,4.1,0.5v1.2c-1.3,0-2.9-0.1-5-0.1c-2.1,0-4.3-0.1-6.6-0.1c-2.2,0-4.4,0-6.3,0.1
			c-2,0-3.6,0.1-4.8,0.1v-1.2c1.8,0,3.2-0.2,4.1-0.5c0.9-0.3,1.6-0.8,1.9-1.6c0.3-0.8,0.5-2,0.5-3.7v-34.8h-1.3
			c-1.9,0-3.5,0.4-4.9,1.3c-1.4,0.8-2.6,2.2-3.5,4.2s-1.8,4.7-2.6,8.1h-1.4c0.1-0.6,0.1-1.3,0.2-2.1c0-0.8,0-1.7,0-2.6
			c0-1,0-2.5-0.1-4.4c-0.1-1.9-0.2-3.9-0.3-6c1.9,0,3.9,0.1,6.1,0.1c2.2,0,4.4,0.1,6.7,0.1c2.2,0,4.2,0,6,0c1.8,0,3.9,0,6.1,0
			c2.2,0,4.4,0,6.7-0.1C762,361.9,764.1,361.9,765.8,361.8z"/>
		<path class="st1" d="M802.1,361.8c-0.2,1.8-0.3,3.5-0.3,5.2c-0.1,1.7-0.1,2.9-0.1,3.8c0,0.8,0,1.6,0.1,2.3c0,0.7,0.1,1.3,0.1,1.8
			h-1.4c-0.4-3-1-5.3-1.9-7c-0.9-1.7-2-2.9-3.3-3.7c-1.4-0.7-3-1.1-4.8-1.1H788c-1.2,0-2.1,0.1-2.7,0.3c-0.6,0.2-1,0.6-1.2,1.2
			c-0.2,0.6-0.3,1.5-0.3,2.8v31.7c0,1.3,0.1,2.2,0.3,2.8c0.2,0.6,0.6,1,1.2,1.2c0.6,0.2,1.5,0.3,2.7,0.3h3c1.8,0,3.4-0.4,4.8-1.2
			s2.6-2.1,3.6-4.1c1-1.9,1.8-4.5,2.3-7.7h1.4c-0.1,1.3-0.2,3-0.2,5.1c0,0.9,0,2.3,0.1,4c0,1.7,0.2,3.5,0.4,5.3
			c-2.1-0.1-4.4-0.1-7-0.2c-2.6,0-4.9,0-7,0c-1.4,0-3.2,0-5.5,0c-2.3,0-4.7,0-7.3,0s-4.9,0.1-7.1,0.2v-1.2c1.3-0.1,2.3-0.2,2.9-0.5
			c0.6-0.2,1.1-0.7,1.3-1.5c0.2-0.7,0.3-1.8,0.3-3.3v-30.3c0-1.5-0.1-2.6-0.3-3.3c-0.2-0.7-0.7-1.2-1.3-1.5
			c-0.7-0.3-1.6-0.4-2.9-0.5v-1.2c2.2,0,4.6,0.1,7.1,0.1c2.6,0,5,0.1,7.3,0.1c2.3,0,4.1,0,5.5,0c1.9,0,4,0,6.4,0
			S800.3,361.9,802.1,361.8z M792.6,382.7v1.2H782v-1.2H792.6z M794.4,374.6c-0.2,2.3-0.2,4.1-0.2,5.3c0,1.2,0,2.3,0,3.4
			s0,2.1,0.1,3.4c0,1.2,0.1,3,0.3,5.3h-1.4c-0.2-1.4-0.6-2.7-1.1-4c-0.5-1.2-1.3-2.2-2.3-3c-1-0.8-2.3-1.1-4-1.1v-1.2
			c1.6,0,2.9-0.4,3.9-1.3c1-0.9,1.7-2,2.3-3.2c0.5-1.2,0.9-2.4,1.1-3.5H794.4z"/>
		<path class="st1" d="M827.4,361.8v1.2c-1.4,0-2.4,0.2-3.1,0.5c-0.7,0.3-1.2,0.8-1.4,1.5c-0.2,0.7-0.4,1.8-0.4,3.3v31
			c0,1.3,0.1,2.2,0.3,2.8c0.2,0.6,0.5,1,1.1,1.2c0.5,0.2,1.4,0.3,2.5,0.3h3c1.9,0,3.6-0.6,5.1-1.7c1.5-1.1,2.8-2.7,3.8-4.8
			c1-2.1,1.8-4.4,2.2-7.1h1.4c-0.1,1.4-0.2,3.2-0.2,5.4c0,0.9,0,2.3,0.1,4.1c0,1.8,0.2,3.6,0.4,5.6c-2.1-0.1-4.4-0.1-7-0.2
			c-2.6,0-4.9,0-7,0c-1.4,0-3.2,0-5.5,0c-2.3,0-4.7,0-7.3,0s-4.9,0.1-7.1,0.2v-1.2c1.3-0.1,2.3-0.2,2.9-0.5c0.6-0.2,1.1-0.7,1.3-1.5
			c0.2-0.7,0.3-1.8,0.3-3.3v-30.3c0-1.5-0.1-2.6-0.3-3.3c-0.2-0.7-0.7-1.2-1.3-1.5c-0.7-0.3-1.6-0.4-2.9-0.5v-1.2
			c1,0,2.4,0.1,4.1,0.1c1.7,0,3.6,0.1,5.5,0.1c1.8,0,3.5,0,5.3-0.1C824.8,361.9,826.3,361.9,827.4,361.8z"/>
		<path class="st1" d="M940.6,416.5v-1.2c1.6-0.2,3-0.6,4.1-1.4c1.1-0.8,2-2.1,2.6-4.1c0.6-1.9,0.9-4.6,0.9-8.1v-33.4
			c0-1.5-0.1-2.6-0.3-3.3c-0.2-0.7-0.7-1.2-1.3-1.5c-0.7-0.3-1.6-0.4-2.9-0.5v-1.2c1,0,2.3,0.1,4,0.1c1.6,0,3.4,0.1,5.2,0.1
			s3.6,0,5.3-0.1c1.7,0,3.2-0.1,4.3-0.1v1.2c-1.3,0-2.2,0.2-2.9,0.5c-0.7,0.3-1.1,0.8-1.3,1.5c-0.2,0.7-0.3,1.8-0.3,3.3v22.3
			c0,1.7,0,3.5,0,5.4s-0.1,3.8-0.2,5.6c-0.1,1.8-0.4,3.5-0.8,4.9c-0.8,2.8-2.6,5.2-5.3,7.1C949,415.5,945.3,416.5,940.6,416.5z"/>
		<path class="st1" d="M985.8,361.7l14.8,38.2c0.6,1.5,1.2,2.5,1.9,3c0.7,0.5,1.4,0.8,1.9,0.9v1.2c-1.2-0.1-2.7-0.1-4.3-0.2
			s-3.3,0-5,0c-1.9,0-3.6,0-5.3,0c-1.7,0-3,0.1-4,0.2v-1.2c2.1-0.1,3.4-0.4,3.9-1.1c0.5-0.6,0.4-2-0.4-4.1l-10.4-28.4l1.1-1.6
			l-9.3,24.2c-1.1,3-1.7,5.3-1.7,6.8c0,1.5,0.5,2.6,1.5,3.1c1,0.5,2.3,0.9,3.9,0.9v1.2c-1.3-0.1-2.6-0.1-3.8-0.2c-1.2,0-2.5,0-3.7,0
			c-0.9,0-1.7,0-2.5,0s-1.5,0.1-2.1,0.2v-1.2c0.9-0.2,1.7-0.7,2.6-1.6c0.9-0.9,1.8-2.5,2.6-4.8l13.9-35.7c0.6,0,1.4,0.1,2.1,0.1
			C984.5,361.8,985.2,361.7,985.8,361.7z M990.1,387.4v1.2h-18.2l0.6-1.2H990.1z"/>
		<path class="st1" d="M1045.1,361.8v1.2c-1.3,0.2-2.3,0.5-2.9,1c-0.7,0.5-1.1,1.3-1.3,2.4c-0.2,1.1-0.3,2.6-0.3,4.6v34
			c-0.5,0-1-0.1-1.5-0.1s-1,0-1.6,0.1l-26.5-33.5V395c0,2.2,0.1,4,0.4,5.2c0.2,1.2,0.8,2.1,1.6,2.6c0.8,0.5,2.1,0.9,3.9,1.1v1.2
			c-0.8-0.1-1.8-0.1-3-0.2c-1.3,0-2.4,0-3.5,0c-0.9,0-1.9,0-2.9,0c-1,0-1.8,0.1-2.4,0.2v-1.2c1.3-0.2,2.3-0.5,2.9-1
			c0.6-0.5,1.1-1.3,1.3-2.4s0.3-2.7,0.3-4.6v-27.4c0-1.5-0.1-2.6-0.3-3.3c-0.2-0.7-0.7-1.2-1.3-1.5c-0.7-0.3-1.6-0.4-2.9-0.5v-1.2
			c0.7,0,1.5,0.1,2.4,0.1c1,0,1.9,0.1,2.9,0.1c1,0,1.9,0,2.8-0.1c0.9,0,1.7-0.1,2.4-0.1l23.6,29.1v-19.1c0-2.2-0.1-4-0.4-5.2
			c-0.2-1.2-0.8-2.1-1.6-2.6c-0.8-0.5-2.1-0.9-3.9-1v-1.2c0.8,0,1.8,0.1,3,0.1c1.3,0,2.4,0.1,3.5,0.1c1,0,1.9,0,2.9-0.1
			C1043.6,361.9,1044.4,361.9,1045.1,361.8z"/>
	</g>
	<g id="Group_77">
		<g id="ic_star_24px">
			<path class="st1" d="M881,371.1l5,3l-1.3-5.7l4.4-3.8l-5.8-0.5l-2.3-5.3l-2.3,5.3l-5.8,0.5l4.4,3.8l-1.3,5.7L881,371.1z"/>
		</g>
		<g id="ic_star_24px-2">
			<path class="st1" d="M901,371.1l5,3l-1.3-5.7l4.4-3.8l-5.8-0.5l-2.3-5.3l-2.3,5.3l-5.8,0.5l4.4,3.8l-1.3,5.7L901,371.1z"/>
		</g>
		<g id="ic_star_24px-3">
			<path class="st1" d="M921,371.1l5,3l-1.3-5.7l4.4-3.8l-5.8-0.5l-2.3-5.3l-2.3,5.3l-5.8,0.5l4.4,3.8l-1.3,5.7L921,371.1z"/>
		</g>
	</g>
</g>
</svg>
