<svg xmlns="http://www.w3.org/2000/svg" xmlns:xlink="http://www.w3.org/1999/xlink" width="131.738" height="75.194" viewBox="0 0 131.738 75.194">
  <defs>
    <clipPath id="clip-path">
      <rect id="Rectangle_38" data-name="Rectangle 38" width="124.687" height="57.572" fill="#fff"/>
    </clipPath>
    <clipPath id="clip-path-2">
      <rect id="Rectangle_39" data-name="Rectangle 39" width="131.738" height="75.194" fill="#fff"/>
    </clipPath>
  </defs>
  <g id="Group_66" data-name="Group 66" transform="translate(10.14 -208.819)">
    <g id="Group_61" data-name="Group 61" transform="translate(-6.174 208.819)">
      <g id="Group_60" data-name="Group 60" transform="translate(0 0)" clip-path="url(#clip-path)">
        <path id="Path_37" data-name="Path 37" d="M254.661,282.338c.807,1.012,1.67,1.982,2.41,3.041,3.474,5.008,3.249,9.449-1.878,12.7-5.7,3.626-12.094,6.168-18.183,9.187-5.236,2.595-10.575,5.009-15.656,7.873a8.564,8.564,0,0,0-4.614,8.429c-1.924-4.056-1.669-8.1,1.52-10.773a57.228,57.228,0,0,1,10.943-7.027c5.764-2.909,11.783-5.314,17.684-7.959a14.42,14.42,0,0,0,2.031-1.2c5.836-3.861,7.1-7.106,5.743-14.276" transform="translate(-190.353 -272.845)" fill="#fff" fill-rule="evenodd"/>
        <path id="Path_38" data-name="Path 38" d="M284.654,249.4c-1.927,1.025-3.656,1.947-5.644,3-2.345-4.91-4.548-9.524-7.045-14.748-1.248,2.563-2.248,4.531-3.171,6.536-1.825,3.973-3.554,7.995-5.439,11.938a30.869,30.869,0,0,0-1.159,3.578s-2.995.6-3.973,1.621c1.139-2.517,2.267-5.036,3.423-7.547,3.441-7.466,6.864-14.943,10.39-22.37.377-.8,1.367-1.789,2.1-1.807.7-.021,1.718.968,2.1,1.756,2.841,5.9,5.558,11.857,8.426,18.039" transform="translate(-227.539 -226.92)" fill="#fff" fill-rule="evenodd"/>
        <path id="Path_39" data-name="Path 39" d="M449.713,459.978c-2.07,1.858-18.514,2.058-21.251.546,1.727-.424,2.95-.809,4.2-1.009,2.306-.373,2.977-1.4,1.908-3.617-1.21-2.5-2.21-5.1-3.435-7.972,1.834-.9,3.588-1.751,5.582-2.722,1.234,2.581,2.506,4.874,3.447,7.291,1.613,4.139,3.8,7.5,9.551,7.484" transform="translate(-375.796 -414.681)" fill="#fff" fill-rule="evenodd"/>
        <path id="Path_40" data-name="Path 40" d="M39.627,299.992q3.908,0,3.909-9.355V258.011a4.079,4.079,0,0,0-.86-2.9,5.715,5.715,0,0,0-3.049-1.3q-1.953-.356-1.954-1.185,0-.652,1.717-.651,1.658,0,3.643.089t3.286.089q.945,0,2.4-.089t3.167-.089q1.716,0,1.717.651,0,.83-1.953,1.185a4.519,4.519,0,0,0-2.754,1.243,5.149,5.149,0,0,0-.622,2.96v24.217q0,4.44-.206,7.342a20.232,20.232,0,0,1-.8,4.707,16.894,16.894,0,0,1-.919,2.4q-.325.591-1.213,1.9a8.461,8.461,0,0,1-7.284,3.907,11.108,11.108,0,0,1-4.411-.74q-1.687-.742-1.687-1.747a3.966,3.966,0,0,1,.681-2.22,1.852,1.852,0,0,1,1.451-1.036,3.312,3.312,0,0,1,2.96,1.539,3.276,3.276,0,0,0,2.783,1.717" transform="translate(-30.31 -246.4)" fill="#fff"/>
        <path id="Path_41" data-name="Path 41" d="M643.622,253.4q1.375,0,3.283-.093t3.909-.095q1.815,0,1.814.688,0,.877-2.064,1.251a6.943,6.943,0,0,0-3.1,1.126,3.029,3.029,0,0,0-.845,2.252q-.126,3-.125,35.025,0,1.563-1.314,1.565A4.773,4.773,0,0,1,643,294.082a12.268,12.268,0,0,1-2.877-2.909q-1.689-2.311-22.266-27.4-.814-1-1.314-1-.564,0-.562,1.312-.316,15.514-.313,23.455,0,4.255,4,5,2.066.374,2.064,1.126,0,.686-1.813.687a33.264,33.264,0,0,1-3.347-.156q-1.533-.156-2.533-.156a23.269,23.269,0,0,0-2.44.156,30.522,30.522,0,0,1-3.253.156q-1.813,0-1.813-.687,0-.625,2.064-1.189,3.189-.875,3.627-5.128a240.26,240.26,0,0,0,1.126-25.019,6.14,6.14,0,0,0-1.532-4.567,11.733,11.733,0,0,0-4.66-2.5q-1.939-.625-1.939-1.5t1.439-.876q1.94.063,4.536.188t5.1.125q.686,0,1.5,1.063.812,1.127,11.728,14.856t12.1,15.167q1.062,1.252,1.563,1.251.562,0,.625-1.314.124-4,.125-20.014v-5.442a3.224,3.224,0,0,0-1.282-2.189,4.907,4.907,0,0,0-2.345-1.251q-2.063-.376-2.064-1.251c0-.458.6-.689,1.813-.689Z" transform="translate(-529.729 -247.204)" fill="#fff"/>
      </g>
    </g>
    <g id="Group_63" data-name="Group 63" transform="translate(-10.14 208.819)">
      <g id="Group_62" data-name="Group 62" transform="translate(0 0)" clip-path="url(#clip-path-2)">
        <path id="Path_42" data-name="Path 42" d="M372.7,671.452c0,.952,0,1.735.05,2.151.03.287.089.505.386.546a4.4,4.4,0,0,0,.447.039c.059,0,.08.03.08.059,0,.05-.05.08-.159.08-.546,0-1.17-.03-1.219-.03s-.673.03-.971.03c-.11,0-.159-.02-.159-.08,0-.029.02-.059.08-.059a1.555,1.555,0,0,0,.3-.039c.2-.04.248-.259.287-.546.05-.416.05-1.2.05-2.151V670.41a.057.057,0,0,0-.06-.059h-4.2a.052.052,0,0,0-.06.059v1.042c0,.952,0,1.735.049,2.151.03.287.089.505.387.546a4.431,4.431,0,0,0,.447.039c.06,0,.08.03.08.059,0,.05-.05.08-.159.08-.544,0-1.17-.03-1.219-.03s-.674.03-.971.03c-.11,0-.158-.02-.158-.08,0-.029.02-.059.078-.059a1.539,1.539,0,0,0,.3-.039c.2-.04.248-.259.287-.546.05-.416.05-1.2.05-2.151v-1.745c0-1.545,0-1.824-.02-2.141-.02-.337-.1-.5-.425-.565a1.9,1.9,0,0,0-.338-.03c-.039,0-.078-.02-.078-.059,0-.06.05-.08.158-.08.446,0,1.07.03,1.12.03s.675-.03.971-.03c.11,0,.159.02.159.08,0,.039-.039.059-.08.059a1.53,1.53,0,0,0-.248.03c-.267.05-.346.218-.367.565-.02.317-.02.6-.02,2.141v.209c0,.05.03.059.06.059h4.2c.03,0,.06-.009.06-.059v-.209c0-1.545,0-1.824-.019-2.141-.02-.337-.1-.5-.427-.565a1.883,1.883,0,0,0-.337-.03c-.039,0-.08-.02-.08-.059,0-.06.05-.08.159-.08.447,0,1.07.03,1.12.03s.673-.03.971-.03c.11,0,.159.02.159.08,0,.039-.041.059-.08.059a1.527,1.527,0,0,0-.248.03c-.268.05-.347.218-.367.565-.019.317-.019.6-.019,2.141Z" transform="translate(-317.305 -607.693)" fill="#fff"/>
        <path id="Path_43" data-name="Path 43" d="M439.464,665.76a3.612,3.612,0,0,1,3.9,3.718,3.891,3.891,0,0,1-3.955,4.055,3.718,3.718,0,0,1-3.847-3.9,3.839,3.839,0,0,1,3.907-3.876m.207,7.4c.891,0,2.736-.516,2.736-3.4,0-2.378-1.448-3.658-3.014-3.658-1.655,0-2.894,1.09-2.894,3.262,0,2.309,1.388,3.8,3.172,3.8" transform="translate(-378.009 -606.76)" fill="#fff"/>
        <path id="Path_44" data-name="Path 44" d="M504.378,670.519c0,.952,0,1.735.049,2.151.03.287.089.505.387.546a4.429,4.429,0,0,0,.446.039c.059,0,.08.03.08.059,0,.05-.05.08-.159.08-.546,0-1.169-.03-1.219-.03s-.674.03-.971.03c-.11,0-.159-.02-.159-.08,0-.029.02-.059.08-.059a1.556,1.556,0,0,0,.3-.039c.2-.041.248-.259.287-.546.05-.417.05-1.2.05-2.151v-4.193l-1.467.02c-.615.01-.852.08-1.01.317a1.615,1.615,0,0,0-.168.307c-.03.08-.06.1-.1.1s-.05-.03-.05-.089c0-.1.2-.952.218-1.031.02-.059.059-.188.1-.188a1.836,1.836,0,0,0,.436.119c.287.03.664.05.783.05H506a3.952,3.952,0,0,0,.705-.05c.149-.02.237-.05.277-.05s.05.06.05.119c0,.3-.03.982-.03,1.09,0,.09-.029.129-.069.129s-.069-.03-.078-.168l-.011-.108c-.03-.3-.267-.526-1.219-.546l-1.249-.02Z" transform="translate(-434.784 -606.761)" fill="#fff"/>
        <path id="Path_45" data-name="Path 45" d="M559.725,669.175c0-1.547,0-1.824-.019-2.141-.02-.338-.1-.5-.427-.565a1.866,1.866,0,0,0-.337-.03c-.039,0-.08-.02-.08-.059,0-.06.05-.08.159-.08.227,0,.5,0,.714.009l.406.02c.069,0,2.041,0,2.27-.009a2.731,2.731,0,0,0,.425-.05c.05-.011.09-.05.14-.05.03,0,.039.039.039.089,0,.071-.05.189-.08.466-.009.1-.029.535-.05.654-.009.049-.029.11-.069.11-.059,0-.078-.05-.078-.129a1.065,1.065,0,0,0-.06-.356c-.069-.159-.168-.278-.7-.337-.168-.021-1.249-.03-1.357-.03-.041,0-.06.03-.06.1v2.736c0,.069.009.1.06.1.128,0,1.347,0,1.576-.019s.376-.041.466-.14c.069-.08.108-.128.149-.128s.05.02.05.078-.05.229-.08.556c-.02.2-.039.564-.039.633s0,.189-.071.189c-.048,0-.069-.04-.069-.089a1.021,1.021,0,0,0-.039-.328c-.041-.14-.129-.307-.516-.347-.268-.03-1.249-.049-1.418-.049a.062.062,0,0,0-.069.069v.873c0,.337-.01,1.487,0,1.694.03.684.179.813,1.15.813a2.828,2.828,0,0,0,.952-.11c.257-.108.376-.307.447-.714.02-.108.039-.147.089-.147s.06.078.06.147a9.67,9.67,0,0,1-.129.962c-.069.259-.149.259-.535.259-.744,0-1.29-.021-1.676-.03s-.624-.03-.773-.03c-.02,0-.188,0-.4.011s-.425.02-.574.02c-.11,0-.159-.02-.159-.08,0-.03.02-.06.08-.06a1.569,1.569,0,0,0,.3-.039c.2-.039.248-.257.287-.544.049-.418.049-1.2.049-2.151Z" transform="translate(-485.393 -607.162)" fill="#fff"/>
        <path id="Path_46" data-name="Path 46" d="M607.4,671.474c0,1.457.041,2.091.218,2.27.159.158.417.229,1.191.229.525,0,.961-.01,1.2-.3a1.384,1.384,0,0,0,.259-.6c.009-.078.03-.129.089-.129s.06.041.06.149a6.485,6.485,0,0,1-.149.992c-.069.227-.1.268-.625.268-.713,0-1.228-.02-1.645-.03s-.725-.03-1.012-.03c-.039,0-.208.011-.406.011s-.416.019-.565.019c-.11,0-.159-.019-.159-.08,0-.03.02-.059.08-.059a1.541,1.541,0,0,0,.3-.041c.2-.039.248-.257.287-.544.049-.416.049-1.2.049-2.151v-1.745c0-1.545,0-1.824-.02-2.141-.019-.337-.1-.5-.427-.565a1.86,1.86,0,0,0-.337-.03c-.039,0-.078-.02-.078-.059,0-.06.048-.08.158-.08.447,0,1.07.03,1.12.03s.773-.03,1.07-.03c.11,0,.159.019.159.08,0,.039-.039.059-.08.059a2.353,2.353,0,0,0-.326.03c-.289.049-.367.218-.388.565-.019.317-.019.6-.019,2.141Z" transform="translate(-526.187 -607.696)" fill="#fff"/>
        <line id="Line_7" data-name="Line 7" x2="38.625" transform="translate(4.993 63.078)" fill="#070708"/>
        <line id="Line_8" data-name="Line 8" x2="38.625" transform="translate(4.993 63.078)" fill="none" stroke="#161615" stroke-miterlimit="10" stroke-width="0.147"/>
        <line id="Line_9" data-name="Line 9" x2="38.625" transform="translate(87.824 63.078)" fill="#070708"/>
        <line id="Line_10" data-name="Line 10" x2="38.625" transform="translate(87.824 63.078)" fill="none" stroke="#161615" stroke-miterlimit="10" stroke-width="0.147"/>
      </g>
    </g>
  </g>
</svg>
