<?xml version="1.0" standalone="no"?>
<!DOCTYPE svg PUBLIC "-//W3C//DTD SVG 20010904//EN"
 "http://www.w3.org/TR/2001/REC-SVG-20010904/DTD/svg10.dtd">
<svg version="1.0" xmlns="http://www.w3.org/2000/svg"
 width="171.000000pt" height="171.000000pt" viewBox="0 0 171.000000 171.000000"
 preserveAspectRatio="xMidYMid meet">
<metadata>
Created by potrace 1.14, written by Peter Selinger 2001-2017
</metadata>
<g transform="translate(0.000000,171.000000) scale(0.100000,-0.100000)"
fill="#000000" stroke="none">
<path d="M763 1591 c-15 -16 -53 -82 -83 -147 -30 -66 -78 -171 -108 -234
-105 -225 -262 -569 -262 -576 0 -3 6 -2 13 3 6 6 30 16 52 23 48 15 65 27 65
47 0 19 46 133 103 253 24 52 54 118 67 145 12 28 45 97 73 155 l50 105 60
-125 c33 -69 82 -171 108 -227 27 -57 52 -103 56 -103 6 0 161 77 171 86 2 1
-19 50 -47 109 -28 59 -51 109 -51 111 0 1 -36 78 -80 170 -44 91 -80 170 -80
174 0 10 -58 60 -70 60 -5 0 -21 -13 -37 -29z"/>
<path d="M1365 1283 c0 -90 -4 -116 -21 -153 -52 -108 -139 -168 -436 -300
-381 -168 -521 -244 -661 -356 -106 -86 -137 -173 -101 -290 l17 -59 8 50 c20
127 57 160 344 308 71 37 487 237 492 237 3 0 68 32 146 71 225 113 292 161
327 234 44 91 22 187 -73 312 -21 29 -40 53 -41 53 -1 0 -1 -48 -1 -107z"/>
<path d="M1158 702 c-43 -20 -78 -41 -78 -46 0 -5 25 -67 55 -137 57 -133 68
-169 57 -186 -10 -15 -42 -29 -81 -37 -57 -11 -113 -27 -109 -32 22 -21 370
-36 488 -20 128 18 190 39 129 43 -110 8 -201 83 -253 208 -50 123 -111 244
-121 244 -5 0 -45 -16 -87 -37z"/>
</g>
</svg>
